<svg version="1.1"
      xmlns="http://www.w3.org/2000/svg"
      xmlns:xlink="http://www.w3.org/1999/xlink"  id="snapshot-51007" width="250" height="250" viewBox="0 0 250 250"><desc>This image was made on Patterninja.com</desc><defs>
<!-- image 20883 -->
<g id="transformed-20883" data-image="20883" transform="translate(-41.82806207391854, -41.82806207391853) rotate(45, 41.82806207391854, 41.82806207391853)"><g><svg version="1.1" width="83.65612414783708px" height="83.65612414783706px" viewBox="0 0 83.65612414783708 83.65612414783706"><g id="original-20883"><svg xmlns="http://www.w3.org/2000/svg" viewBox="0 0 24 24" xmlns:xlink="http://www.w3.org/1999/xlink" version="1.1" preserveAspectRatio="xMidYMid meet">
  <path d="M6 2h2v2H6V2zm2 3H6v3H2v9h6v-2h2v2h4v-2h2v2h6V8h-4V5h-2v3h-3V5h-2v3H8V5zm12 10h-4v-3h-2v3h-4v-3H8v3H4v-5h16v5zM2 20h20v2H2v-2zM13 2h-2v2h2V2zm3 0h2v2h-2V2zM2 17h2v3H2zm18 0h2v3h-2z" fill="rgba(12, NaN, 14, 1)" stroke="none"/>
</svg>
</g></svg></g></g>
<!-- /image 20883 -->

<!-- image 54395 -->
<g id="transformed-54395" data-image="54395" transform="translate(79.86926601286108, 72.17926601286106) rotate(315, 52.81073398713893, 52.81073398713894)"><g><svg version="1.1" width="105.62146797427786px" height="105.62146797427788px" viewBox="0 0 105.62146797427786 105.62146797427788"><g id="original-54395"><svg xmlns="http://www.w3.org/2000/svg" viewBox="0 0 24 24" xmlns:xlink="http://www.w3.org/1999/xlink" version="1.1" preserveAspectRatio="xMidYMid meet">
  <path xmlns="http://www.w3.org/2000/svg" d="M8 6v3.999h3V6h2v3.999h3V6h2v3.999L19 10a3 3 0 0 1 2.995 2.824L22 13v1c0 1.014-.377 1.94-.999 2.645L21 21a1 1 0 0 1-1 1H4a1 1 0 0 1-1-1v-4.36a4.025 4.025 0 0 1-.972-2.182l-.022-.253L2 14v-1a3 3 0 0 1 2.824-2.995L5 10l1-.001V6h2zm1.002 10.641l-.054.063a3.994 3.994 0 0 1-2.514 1.273l-.23.018L6 18c-.345 0-.68-.044-1-.126V20h14v-2.126a4.007 4.007 0 0 1-3.744-.963l-.15-.15-.106-.117-.107.118a3.99 3.99 0 0 1-2.451 1.214l-.242.02L12 18a3.977 3.977 0 0 1-2.797-1.144l-.15-.157-.051-.058zM19 12H5a1 1 0 0 0-.993.883L4 13v.971l.003.147A2 2 0 0 0 6 16a1.999 1.999 0 0 0 1.98-1.7l.015-.153.005-.176c.036-1.248 1.827-1.293 1.989-.134l.01.134.004.147a2 2 0 0 0 3.992.031l.012-.282c.124-1.156 1.862-1.156 1.986 0l.012.282a2 2 0 0 0 3.99 0L20 14v-1a1 1 0 0 0-.883-.993L19 12zM7 1c1.32.871 1.663 2.088 1.449 2.888a1.5 1.5 0 0 1-2.898-.776C5.85 2.002 7 2.5 7 1zm5 0c1.32.871 1.663 2.088 1.449 2.888a1.5 1.5 0 1 1-2.898-.776C10.85 2.002 12 2.5 12 1zm5 0c1.32.871 1.663 2.088 1.449 2.888a1.5 1.5 0 1 1-2.898-.776C15.85 2.002 17 2.5 17 1z" fill="rgba(0, 0, 0, 1)" stroke="none"/>
</svg>
</g></svg></g></g>
<!-- /image 54395 -->

<!-- image 92102 -->
<g id="transformed-92102" data-image="92102" transform="translate(83.93001668505414, -43.036783982348055) rotate(0, 46.82998331494584, 44.95678398234806)"><g><svg version="1.1" width="93.65996662989168px" height="89.91356796469611px" viewBox="0 0 93.65996662989168 89.91356796469611"><g id="original-92102"><svg xmlns="http://www.w3.org/2000/svg" fill="currentColor" viewBox="-2 -1 24 24" xmlns:xlink="http://www.w3.org/1999/xlink" version="1.1" preserveAspectRatio="xMidYMid meet">
  <path d="M2 18.262V20h16v-1.728l-3.106.753-4.86-1.004-4.977 1.004L2 18.262zM2 16.2l3.104.775 4.936-.996 4.819.996L18 16.214V15a1 1 0 0 0-1-1H3a1 1 0 0 0-1 1v1.2zM13 12h4a3 3 0 0 1 3 3v7H0v-7a3 3 0 0 1 3-3h4V9h6v3zm-2 0v-1H9v1h2zm-1-3.6a3 3 0 0 1-3-3C7 4.295 8 2.495 10 0c2 2.495 3 4.295 3 5.4a3 3 0 0 1-3 3zm-.002-1.981c.552 0 1-.48 1-1.072 0-.394-.334-1.037-1-1.928-.667.891-1 1.534-1 1.928 0 .592.448 1.072 1 1.072z" fill="rgba(0, 0, 0, 1)" stroke="none"/>
</svg>
</g></svg></g></g>
<!-- /image 92102 -->
</defs><rect x="0" y="0" width="250" height="250" fill="rgba(255, 255, 255, 0)"></rect><use xlink:href="#transformed-20883" transform="translate(-250, -250)"></use><use xlink:href="#transformed-20883" transform="translate(0, -250)"></use><use xlink:href="#transformed-20883" transform="translate(250, -250)"></use><use xlink:href="#transformed-20883" transform="translate(-250, 0)"></use><use xlink:href="#transformed-20883" transform="translate(0, 0)"></use><use xlink:href="#transformed-20883" transform="translate(250, 0)"></use><use xlink:href="#transformed-20883" transform="translate(-250, 250)"></use><use xlink:href="#transformed-20883" transform="translate(0, 250)"></use><use xlink:href="#transformed-20883" transform="translate(250, 250)"></use><use xlink:href="#transformed-54395" transform="translate(-250, -250)"></use><use xlink:href="#transformed-54395" transform="translate(0, -250)"></use><use xlink:href="#transformed-54395" transform="translate(250, -250)"></use><use xlink:href="#transformed-54395" transform="translate(-250, 0)"></use><use xlink:href="#transformed-54395" transform="translate(0, 0)"></use><use xlink:href="#transformed-54395" transform="translate(250, 0)"></use><use xlink:href="#transformed-54395" transform="translate(-250, 250)"></use><use xlink:href="#transformed-54395" transform="translate(0, 250)"></use><use xlink:href="#transformed-54395" transform="translate(250, 250)"></use><use xlink:href="#transformed-92102" transform="translate(-250, -250)"></use><use xlink:href="#transformed-92102" transform="translate(0, -250)"></use><use xlink:href="#transformed-92102" transform="translate(250, -250)"></use><use xlink:href="#transformed-92102" transform="translate(-250, 0)"></use><use xlink:href="#transformed-92102" transform="translate(0, 0)"></use><use xlink:href="#transformed-92102" transform="translate(250, 0)"></use><use xlink:href="#transformed-92102" transform="translate(-250, 250)"></use><use xlink:href="#transformed-92102" transform="translate(0, 250)"></use><use xlink:href="#transformed-92102" transform="translate(250, 250)"></use></svg>