<svg id="Capa_1" data-name="Capa 1" xmlns="http://www.w3.org/2000/svg" viewBox="0 0 944 90"><defs><style>.cls-1{font-size:54px;font-family:Dune_Rise, Dune Rise;}.cls-1,.cls-3{fill:#fdf6e3;}.cls-2{letter-spacing:-0.15em;}</style></defs><text class="cls-1" transform="translate(117.1 68.38)">Arrakis Ca<tspan class="cls-2" x="491.29" y="0">k</tspan><tspan x="537.19" y="0">e Shop</tspan></text><path class="cls-3" d="M51,6A40.76,40.76,0,1,0,91.75,46.78,40.75,40.75,0,0,0,51,6Zm-1.53,2.5V23.19c-6,.41-21.13,5.32-21.57,22.06h-14C14.32,17.2,39.71,9.13,49.47,8.52Zm3.06.15.27.09c13.39,5.38,14.32,36.87,13.09,45.52l-6.2-3.88c.59-5.83-.16-22.52-7.16-26.64Zm-38,39.63h14.6c3.31,2.63,13.13,5.88,28.34,4.33l6.4,4c-28.61,3.23-45.95-3.84-49.34-8.33Z"/></svg>